<svg width="16" height="13" viewBox="0 0 16 13" fill="none" xmlns="http://www.w3.org/2000/svg">
<path fill-rule="evenodd" clip-rule="evenodd" d="M7.99966 4.23096C7.00216 4.23096 6.19141 5.04246 6.19141 6.03996C6.19141 7.03671 7.00216 7.84746 7.99966 7.84746C8.99716 7.84746 9.80866 7.03671 9.80866 6.03996C9.80866 5.04246 8.99716 4.23096 7.99966 4.23096ZM7.99966 8.97246C6.38191 8.97246 5.06641 7.65696 5.06641 6.03996C5.06641 4.42221 6.38191 3.10596 7.99966 3.10596C9.61741 3.10596 10.9337 4.42221 10.9337 6.03996C10.9337 7.65696 9.61741 8.97246 7.99966 8.97246Z" fill="#130F26"/>
<mask id="mask0_588_91" style="mask-type:alpha" maskUnits="userSpaceOnUse" x="0" y="0" width="16" height="13">
<path fill-rule="evenodd" clip-rule="evenodd" d="M0.5 0.00012207H15.4999V12.0789H0.5V0.00012207Z" fill="white"/>
</mask>
<g mask="url(#mask0_588_91)">
<path fill-rule="evenodd" clip-rule="evenodd" d="M1.67731 6.03932C3.07231 9.12107 5.42206 10.9533 7.99981 10.9541C10.5776 10.9533 12.9273 9.12107 14.3223 6.03932C12.9273 2.95832 10.5776 1.12607 7.99981 1.12532C5.42281 1.12607 3.07231 2.95832 1.67731 6.03932ZM8.00131 12.0791H7.99831H7.99756C4.89556 12.0768 2.11006 9.90257 0.545562 6.26132C0.484812 6.11957 0.484812 5.95907 0.545562 5.81732C2.11006 2.17682 4.89631 0.00256836 7.99756 0.000318359C7.99906 -0.000431641 7.99906 -0.000431641 7.99981 0.000318359C8.00131 -0.000431641 8.00131 -0.000431641 8.00206 0.000318359C11.1041 0.00256836 13.8896 2.17682 15.4541 5.81732C15.5156 5.95907 15.5156 6.11957 15.4541 6.26132C13.8903 9.90257 11.1041 12.0768 8.00206 12.0791H8.00131Z" fill="#130F26"/>
</g>
</svg>
